# xmcd
#
# Track frame offsets:
# 150
# 17183
# 36210
# 58094
# 72119
# 93270
# 122285
# 139349
# 160980
# 176624
# 198582
# 213154
# 231315
# 254807
# 274888
#
# Disc length: 3931 seconds
#
# Revision: 0
# Processed by: cddbd v1.4PL0 Copyright (c) Steve Scherf et al.
# Submitted via: Axialis_AX_CDPlayer 2.6
#
DISCID=df0f590f
DTITLE=John Hiatt - John Hiatt Collection I
DYEAR=1900
DGENRE=
TTITLE0=Tennessee Plates
TTITLE1=Lipstick Sunset
TTITLE2=Feels Like Rain
TTITLE3=Thing Called Love
TTITLE4=Perfectly Good Guitar
TTITLE5=Big Love
TTITLE6=Little Head
TTITLE7=Alone In The Dark
TTITLE8=I Know A Place
TTITLE9=Through Your Hands
TTITLE10=Something Broken
TTITLE11=Only The Song Survives
TTITLE12=Walk On
TTITLE13=The River Knows Your Name
TTITLE14=Paper Thin
EXTD=
EXTT0=
EXTT1=
EXTT2=
EXTT3=
EXTT4=
EXTT5=
EXTT6=
EXTT7=
EXTT8=
EXTT9=
EXTT10=
EXTT11=
EXTT12=
EXTT13=
EXTT14=
PLAYORDER=
